HIERARCHY
ROOT Hips
{
    OFFSET 0.000000 0.000000 0.000000
    CHANNELS 6 Xposition Yposition Zposition Zrotation Xrotation Yrotation
    JOINT Spine
    {
        OFFSET -0.000000 14.517291 0.000000
        CHANNELS 3 Zrotation Xrotation Yrotation
        JOINT Spine1
        {
            OFFSET -0.000000 37.558300 0.000000
            CHANNELS 3 Zrotation Xrotation Yrotation
            JOINT Neck
            {
                OFFSET -0.000000 37.404057 3.400369
                CHANNELS 3 Zrotation Xrotation Yrotation
                JOINT Head
                {
                    OFFSET -0.000000 24.785618 -3.540803
                    CHANNELS 3 Zrotation Xrotation Yrotation
                    End Site
                    {
                        OFFSET -0.000000 35.408028 0.000000
                    }
                }
            }
            JOINT LeftShoulder
            {
                OFFSET 6.992933 33.973492 -0.192664
                CHANNELS 3 Zrotation Xrotation Yrotation
                JOINT LeftArm
                {
                    OFFSET 21.527611 0.000000 0.000000
                    CHANNELS 3 Zrotation Xrotation Yrotation
                    JOINT LeftForeArm
                    {
                        OFFSET 56.353916 0.000000 0.000000
                        CHANNELS 3 Zrotation Xrotation Yrotation
                        JOINT LeftHand
                        {
                            OFFSET 47.774071 0.000000 0.000000
                            CHANNELS 3 Zrotation Xrotation Yrotation
                            End Site
                            {
                                OFFSET 26.556021 0.000000 0.000000
                            }
                        }
                    }
                }
            }
            JOINT RightShoulder
            {
                OFFSET -7.065357 33.973492 -0.192664
                CHANNELS 3 Zrotation Xrotation Yrotation
                JOINT RightArm
                {
                    OFFSET -21.527611 0.000000 0.000000
                    CHANNELS 3 Zrotation Xrotation Yrotation
                    JOINT RightForeArm
                    {
                        OFFSET -56.353916 0.000000 0.000000
                        CHANNELS 3 Zrotation Xrotation Yrotation
                        JOINT RightHand
                        {
                            OFFSET -47.774071 0.000000 0.000000
                            CHANNELS 3 Zrotation Xrotation Yrotation
                            End Site
                            {
                                OFFSET -26.556021 0.000000 0.000000
                            }
                        }
                    }
                }
            }
        }
    }
    JOINT LeftUpLeg
    {
        OFFSET 17.704014 0.000000 0.000000
        CHANNELS 3 Zrotation Xrotation Yrotation
        JOINT LeftLeg
        {
            OFFSET -0.000000 -81.181816 0.000000
            CHANNELS 3 Zrotation Xrotation Yrotation
            JOINT LeftFoot
            {
                OFFSET -0.000000 -62.821102 0.000000
                CHANNELS 3 Zrotation Xrotation Yrotation
                JOINT LeftToeBase
                {
                    OFFSET -0.000000 -11.507608 26.556021
                    CHANNELS 3 Zrotation Xrotation Yrotation
                    End Site
                    {
                        OFFSET -0.000000 0.000000 7.081605
                    }
                }
            }
        }
    }
    JOINT RightUpLeg
    {
        OFFSET -17.704014 0.000000 0.000000
        CHANNELS 3 Zrotation Xrotation Yrotation
        JOINT RightLeg
        {
            OFFSET -0.000000 -81.181816 0.000000
            CHANNELS 3 Zrotation Xrotation Yrotation
            JOINT RightFoot
            {
                OFFSET -0.000000 -62.821102 0.000000
                CHANNELS 3 Zrotation Xrotation Yrotation
                JOINT RightToeBase
                {
                    OFFSET -0.000000 -11.507608 26.556021
                    CHANNELS 3 Zrotation Xrotation Yrotation
                    End Site
                    {
                        OFFSET -0.000000 0.000000 7.081605
                    }
                }
            }
        }
    }
}
MOTION
Frames:    12
Frame Time:    0.008333
16.861361    158.639481    50.998451    2.198168    0.030324    -52.709328    -0.737131    0.437804    -1.378595    -0.208449    1.152840    -0.459419    12.931730    2.592699    9.707922    -6.690438    4.841301    7.807012    9.713692    3.861222    -15.243587    -9.446400    -4.393025    -24.805103    15.199347    -1.582911    -53.284706    -3.232672    7.377452    -43.751423    -9.865093    -0.593608    -5.868026    32.838299    -22.651070    48.445034    5.467331    -23.682383    104.383057    15.773441    -26.044245    31.364416    24.707954    -19.642630    0.230288    -14.750905    19.017605    -4.248404    -19.943781    0.584697    48.225620    0.000000    0.000000    0.000000    -9.801878    -11.670267    -7.272107    5.752980    37.034935    -7.292004    3.705432    -21.426765    -8.879478    0.000000    0.000000    0.000000    
17.070591    158.545563    51.918804    2.202966    0.065038    -52.850376    -0.736228    0.416292    -1.345729    -0.201171    1.179381    -0.448368    12.964610    2.597843    9.727110    -6.709127    4.810822    7.819785    9.728866    3.849068    -15.192646    -9.430362    -4.451695    -24.836859    15.172093    -1.520324    -53.349277    -3.119673    7.390265    -43.719379    -9.860534    -0.575771    -5.844273    32.865768    -22.629612    48.439014    5.469166    -23.669436    104.357475    15.707946    -26.044840    31.384970    24.476013    -19.414122    0.525951    -14.835848    19.112709    -4.049425    -19.254852    -0.020760    47.929337    0.000000    0.000000    0.000000    -10.076847    -11.591428    -7.314176    5.616782    36.993977    -7.123982    4.003415    -21.368279    -8.826211    0.000000    0.000000    0.000000    
17.286634    158.467178    52.866524    2.235774    0.122732    -52.980766    -0.753827    0.350964    -1.317048    -0.120355    1.218338    -0.439583    12.848975    2.588778    9.722275    -6.607417    4.781002    7.836896    9.653101    3.789133    -15.165993    -9.403747    -4.372019    -24.814024    15.214001    -1.589087    -53.437634    -3.176996    7.376150    -43.572132    -9.926151    -0.562522    -5.823333    32.925697    -22.710669    48.385475    5.560242    -23.475395    104.389297    15.632473    -25.982447    31.395721    24.234537    -19.196844    0.916212    -14.882984    19.172487    -3.783943    -18.346786    -0.442015    47.410851    0.000000    0.000000    0.000000    -10.346068    -11.527448    -7.405051    5.421030    36.968777    -7.065359    4.395007    -21.313452    -8.603816    0.000000    0.000000    0.000000    
17.509586    158.410400    53.818970    2.281651    0.146171    -53.107597    -0.816935    0.313579    -1.286824    -0.077163    1.230425    -0.429861    12.836685    2.560378    9.728271    -6.532107    4.782609    7.849091    9.652880    3.750900    -15.148129    -9.413408    -4.391179    -24.829147    15.178986    -1.572648    -53.452183    -3.157439    7.373181    -43.700275    -9.923090    -0.517638    -5.796130    32.935898    -22.725035    48.336849    5.619179    -23.431625    104.446106    15.522246    -26.063307    31.246841    23.932777    -18.966469    1.428160    -14.906124    19.198200    -3.432562    -17.473948    -0.785013    46.778175    0.000000    0.000000    0.000000    -10.666818    -11.440983    -7.376175    5.387909    36.892059    -7.105473    4.692759    -21.240360    -8.545201    0.000000    0.000000    0.000000    
17.728519    158.367828    54.781551    2.338519    0.192620    -53.218857    -0.895469    0.256053    -1.266599    -0.021272    1.228529    -0.423749    12.876393    2.568211    9.746455    -6.513898    4.780456    7.865605    9.675250    3.769314    -15.144212    -9.431901    -4.439677    -24.829906    15.142798    -1.588337    -53.555641    -3.199834    7.370512    -43.618149    -9.883644    -0.506922    -5.792829    32.913898    -22.667427    48.269062    5.570124    -23.454082    104.408470    15.538277    -26.010548    31.314299    23.649429    -18.776411    1.995720    -14.959410    19.286957    -3.202531    -16.529448    -1.097359    46.099213    0.000000    0.000000    0.000000    -10.957076    -11.362335    -7.434672    5.250868    36.797924    -7.030218    4.996956    -21.132490    -8.516542    0.000000    0.000000    0.000000    
17.950813    158.345291    55.748154    2.385802    0.215077    -53.326992    -1.007525    0.238099    -1.246061    0.083807    1.223217    -0.417998    12.864347    2.545592    9.730119    -6.488620    4.776717    7.849794    9.633414    3.748424    -15.134497    -9.441960    -4.465114    -24.847603    15.128675    -1.531088    -53.591225    -3.114240    7.394276    -43.693916    -9.879642    -0.534346    -5.776722    32.906765    -22.625397    48.153450    5.568797    -23.430462    104.457451    15.555132    -25.985126    31.328711    23.355347    -18.610186    2.634010    -15.025131    19.494356    -3.160306    -15.557178    -1.430079    45.492455    0.000000    0.000000    0.000000    -11.272617    -11.245057    -7.410227    5.190352    36.653965    -7.099147    5.334335    -20.979019    -8.418165    0.000000    0.000000    0.000000    
18.176945    158.351318    56.685139    2.444371    0.295625    -53.409271    -1.084559    0.202748    -1.227395    0.125075    1.192608    -0.412172    12.899147    2.442752    9.724564    -6.389276    4.885371    7.843652    9.680210    3.730456    -15.134122    -9.448013    -4.438627    -24.888563    15.083507    -1.585049    -53.670986    -3.122269    7.328952    -43.528313    -9.784052    -0.464928    -5.840429    32.953396    -22.689198    48.157879    5.630860    -23.303429    104.499237    15.472583    -25.971962    31.234058    23.118299    -18.554798    3.297584    -15.115653    19.780960    -3.161597    -14.648130    -1.772712    45.000713    0.000000    0.000000    0.000000    -11.528042    -11.136307    -7.398579    5.080895    36.422153    -7.152245    5.709385    -20.748960    -8.288346    0.000000    0.000000    0.000000    
18.392715    158.382660    57.614601    2.488594    0.398614    -53.425468    -1.184368    0.173480    -1.266105    0.252554    1.145018    -0.426319    12.991768    2.433990    9.746238    -6.438421    4.888412    7.848569    9.659991    3.684855    -15.187832    -9.461732    -4.485006    -24.852434    15.021575    -1.477428    -53.702766    -3.127328    7.413865    -43.618679    -9.770725    -0.503643    -5.821692    32.941597    -22.650230    47.961090    5.586296    -23.230465    104.541008    15.436333    -25.855995    31.281940    22.922533    -18.575186    3.888448    -15.217990    20.141479    -3.407642    -13.854622    -2.169743    44.728046    0.000000    0.000000    0.000000    -11.738805    -10.992487    -7.536169    4.849137    36.152489    -7.044428    6.115295    -20.463303    -8.198097    0.000000    0.000000    0.000000    
18.643970    158.425400    58.516701    2.566629    0.542393    -53.441254    -1.263715    0.151032    -1.290550    0.340371    1.046372    -0.434986    13.073261    2.433539    9.731366    -6.459137    4.849575    7.818251    9.728379    3.719871    -15.192069    -9.499320    -4.507910    -24.921825    15.001695    -1.500529    -53.730412    -3.128476    7.385754    -43.613861    -9.677190    -0.486554    -5.866780    32.919884    -22.604204    47.869465    5.587880    -23.274326    104.628777    15.426138    -25.921190    31.223883    22.757875    -18.716951    4.465094    -15.316996    20.599848    -3.717676    -13.138738    -2.574425    44.538929    0.000000    0.000000    0.000000    -11.945736    -10.910232    -7.597684    4.713896    35.775780    -7.011015    6.456823    -20.064079    -8.206855    0.000000    0.000000    0.000000    
18.886593    158.496445    59.407108    2.634309    0.703331    -53.431686    -1.385696    0.116233    -1.324062    0.529881    0.969831    -0.447437    13.085526    2.412514    9.715803    -6.413424    4.806568    7.800119    9.714693    3.712918    -15.243404    -9.502743    -4.559497    -24.942141    14.901703    -1.462378    -53.809727    -3.151325    7.389217    -43.454510    -9.667705    -0.503579    -5.916987    32.945988    -22.615751    47.713516    5.646924    -23.156755    104.686707    15.457030    -25.868500    31.268141    22.624109    -18.875891    4.937574    -15.435744    21.042429    -4.040094    -12.500277    -2.943020    44.423767    0.000000    0.000000    0.000000    -12.125662    -10.796865    -7.654143    4.581914    35.413170    -7.023936    6.852664    -19.667070    -8.169495    0.000000    0.000000    0.000000    
19.143162    158.585785    60.272217    2.722922    0.895490    -53.370232    -1.450353    0.070725    -1.383309    0.598639    0.889690    -0.467302    13.237207    2.339645    9.710409    -6.469824    4.836875    7.762269    9.814206    3.675314    -15.288960    -9.541780    -4.578498    -25.013252    14.864825    -1.395298    -53.763695    -3.112604    7.416952    -43.550861    -9.529140    -0.505349    -6.006270    32.944958    -22.655514    47.620094    5.607080    -23.090759    104.730255    15.428803    -25.777662    31.205259    22.519432    -19.126749    5.243596    -15.607431    21.506727    -4.330843    -11.950547    -3.298903    44.369068    0.000000    0.000000    0.000000    -12.280085    -10.740332    -7.789824    4.414596    35.029579    -7.033376    7.228102    -19.146336    -8.182509    0.000000    0.000000    0.000000    
19.397589    158.682068    61.117554    2.795793    1.103323    -53.310070    -1.547415    0.053884    -1.447126    0.747789    0.766690    -0.488825    13.341454    2.250450    9.686857    -6.482869    4.902934    7.715897    9.860483    3.683267    -15.315660    -9.585283    -4.437904    -25.174688    15.047708    -1.524513    -53.585323    -3.265863    7.415439    -43.596539    -9.452428    -0.561865    -6.029096    32.900124    -22.612919    47.381001    5.647953    -23.058407    104.855865    15.380269    -25.836082    31.095778    22.436253    -19.368067    5.518033    -15.753619    21.946077    -4.543602    -11.441877    -3.616664    44.229542    0.000000    0.000000    0.000000    -12.416036    -10.635065    -7.877960    4.329812    34.607994    -7.044374    7.543793    -18.692926    -8.274321    0.000000    0.000000    0.000000    
